<?xml version="1.0" encoding="utf-8"?>
<!-- Font Poppins, Extracted by @neytaan_art (on Instagram)  -->
<svg version="1.1" xmlns="http://www.w3.org/2000/svg" xmlns:xlink="http://www.w3.org/1999/xlink" x="0px" y="0px"
	 viewBox="0 0 412.3 401.16" style="enable-background:new 0 0 412.3 401.16;" xml:space="preserve">
<style type="text/css">
	.st0{display:none;}
	.st1{display:inline;}
</style>
<g id="Calque_1">
</g>
<g id="Calque_3" class="st0">
	<g class="st1">
		<path d="M396.63,411.66h-119.7l-200.2-303.1v303.1h-119.7v-491.4h119.7l200.2,304.5v-304.5h119.7V411.66z"/>
	</g>
</g>
<g id="Calque_4" class="st0">
	<g class="st1">
		<path d="M131.91-38.09c-13.3-12.36-19.95-27.65-19.95-45.85c0-18.66,6.65-34.18,19.95-46.55c13.3-12.36,30.45-18.55,51.45-18.55
			c20.53,0,37.45,6.19,50.75,18.55c13.3,12.37,19.95,27.89,19.95,46.55c0,18.2-6.65,33.49-19.95,45.85
			c-13.3,12.37-30.22,18.55-50.75,18.55C162.36-19.54,145.21-25.72,131.91-38.09z M242.86,21.06v390.6h-119.7V21.06H242.86z"/>
	</g>
</g>
<g id="Calque_5" class="st0">
	<g class="st1">
		<path d="M-23.72,104.36c16.56-30.33,39.66-53.66,69.3-70c29.63-16.33,63.58-24.5,101.85-24.5c49,0,89.95,12.84,122.85,38.5
			c32.9,25.67,54.48,61.84,64.75,108.5h-127.4c-10.74-29.86-31.5-44.8-62.3-44.8c-21.94,0-39.44,8.52-52.5,25.55
			c-13.07,17.04-19.6,41.42-19.6,73.15c0,31.74,6.53,56.12,19.6,73.15c13.06,17.04,30.56,25.55,52.5,25.55
			c30.8,0,51.56-14.93,62.3-44.8h127.4c-10.27,45.74-31.97,81.67-65.1,107.8c-33.14,26.14-73.97,39.2-122.5,39.2
			c-38.27,0-72.22-8.16-101.85-24.5c-29.64-16.33-52.74-39.66-69.3-70c-16.57-30.33-24.85-65.8-24.85-106.4
			S-40.29,134.7-23.72,104.36z"/>
	</g>
</g>
<g id="Calque_6" class="st0">
	<g class="st1">
		<path d="M49.78,387.16c-30.57-16.33-54.6-39.66-72.1-70c-17.5-30.33-26.25-65.8-26.25-106.4c0-40.13,8.86-75.48,26.6-106.05
			c17.73-30.56,42-54.01,72.8-70.35c30.8-16.33,65.33-24.5,103.6-24.5c38.26,0,72.8,8.17,103.6,24.5
			c30.8,16.34,55.06,39.79,72.8,70.35c17.73,30.57,26.6,65.92,26.6,106.05c0,40.14-8.99,75.49-26.95,106.05
			c-17.97,30.57-42.47,54.02-73.5,70.35c-31.04,16.34-65.69,24.5-103.95,24.5C114.76,411.66,80.34,403.5,49.78,387.16z
			 M211.48,282.86c16.1-16.8,24.15-40.83,24.15-72.1c0-31.26-7.82-55.3-23.45-72.1c-15.64-16.8-34.89-25.2-57.75-25.2
			c-23.34,0-42.7,8.29-58.1,24.85c-15.4,16.57-23.1,40.72-23.1,72.45c0,31.27,7.58,55.3,22.75,72.1
			c15.16,16.8,34.18,25.2,57.05,25.2C175.89,308.06,195.38,299.66,211.48,282.86z"/>
	</g>
</g>
<g id="Calque_7" class="st0">
	<g class="st1">
		<path d="M71.13-106.34v518h-119.7v-518H71.13z"/>
	</g>
</g>
<g id="Calque_8">
	<g>
		<path d="M22.75,94.5c15.16-30.33,35.81-53.66,61.95-70C110.83,8.17,140,0,172.2,0c27.53,0,51.68,5.6,72.45,16.8
			C265.41,28,281.4,42.7,292.6,60.9V5.6h119.7v390.6H292.6v-55.3c-11.67,18.2-27.89,32.9-48.65,44.1
			c-20.77,11.2-44.92,16.8-72.45,16.8c-31.74,0-60.67-8.28-86.8-24.85c-26.14-16.56-46.79-40.13-61.95-70.7
			C7.58,275.69,0,240.34,0,200.2C0,160.07,7.58,124.84,22.75,94.5z M267.75,130.2c-16.57-17.26-36.75-25.9-60.55-25.9
			c-23.8,0-43.99,8.52-60.55,25.55c-16.57,17.04-24.85,40.49-24.85,70.35c0,29.87,8.28,53.55,24.85,71.05
			c16.56,17.5,36.75,26.25,60.55,26.25c23.8,0,43.98-8.63,60.55-25.9c16.56-17.26,24.85-40.83,24.85-70.7
			C292.6,171.04,284.31,147.47,267.75,130.2z"/>
	</g>
</g>
</svg>
