<?xml version="1.0" encoding="utf-8"?>
<!-- Font Poppins, Extracted by @neytaan_art (on Instagram)  -->
<svg version="1.1" xmlns="http://www.w3.org/2000/svg" xmlns:xlink="http://www.w3.org/1999/xlink" x="0px" y="0px"
	 viewBox="0 0 392 401.8" style="enable-background:new 0 0 392 401.8;" xml:space="preserve">
<style type="text/css">
	.st0{display:none;}
	.st1{display:inline;}
</style>
<g id="Calque_1">
</g>
<g id="Calque_3" class="st0">
	<g class="st1">
		<path d="M368.16,412.3h-119.7L48.26,109.2v303.1h-119.7V-79.1h119.7l200.2,304.5V-79.1h119.7V412.3z"/>
	</g>
</g>
<g id="Calque_4" class="st0">
	<g class="st1">
		<path d="M103.45-37.45C90.15-49.81,83.5-65.1,83.5-83.3c0-18.66,6.65-34.18,19.95-46.55c13.3-12.36,30.45-18.55,51.45-18.55
			c20.53,0,37.45,6.19,50.75,18.55c13.3,12.37,19.95,27.89,19.95,46.55c0,18.2-6.65,33.49-19.95,45.85
			c-13.3,12.37-30.22,18.55-50.75,18.55C133.9-18.9,116.75-25.08,103.45-37.45z M214.4,21.7v390.6H94.7V21.7H214.4z"/>
	</g>
</g>
<g id="Calque_5" class="st0">
	<g class="st1">
		<path d="M-52.19,105c16.56-30.33,39.66-53.66,69.3-70c29.63-16.33,63.58-24.5,101.85-24.5c49,0,89.95,12.84,122.85,38.5
			c32.9,25.67,54.48,61.84,64.75,108.5h-127.4c-10.74-29.86-31.5-44.8-62.3-44.8c-21.94,0-39.44,8.52-52.5,25.55
			c-13.07,17.04-19.6,41.42-19.6,73.15c0,31.74,6.53,56.12,19.6,73.15c13.06,17.04,30.56,25.55,52.5,25.55
			c30.8,0,51.56-14.93,62.3-44.8h127.4c-10.27,45.74-31.97,81.67-65.1,107.8c-33.14,26.14-73.97,39.2-122.5,39.2
			c-38.27,0-72.22-8.16-101.85-24.5c-29.64-16.33-52.74-39.66-69.3-70c-16.57-30.33-24.85-65.8-24.85-106.4S-68.76,135.34-52.19,105
			z"/>
	</g>
</g>
<g id="Calque_6" class="st0">
	<g class="st1">
		<path d="M21.31,387.8c-30.57-16.33-54.6-39.66-72.1-70c-17.5-30.33-26.25-65.8-26.25-106.4c0-40.13,8.86-75.48,26.6-106.05
			c17.73-30.56,42-54.01,72.8-70.35c30.8-16.33,65.33-24.5,103.6-24.5c38.26,0,72.8,8.17,103.6,24.5
			c30.8,16.34,55.06,39.79,72.8,70.35c17.73,30.57,26.6,65.92,26.6,106.05c0,40.14-8.99,75.49-26.95,106.05
			c-17.97,30.57-42.47,54.02-73.5,70.35c-31.04,16.34-65.69,24.5-103.95,24.5C86.29,412.3,51.87,404.14,21.31,387.8z M183.02,283.5
			c16.1-16.8,24.15-40.83,24.15-72.1c0-31.26-7.82-55.3-23.45-72.1c-15.64-16.8-34.89-25.2-57.75-25.2
			c-23.34,0-42.7,8.29-58.1,24.85c-15.4,16.57-23.1,40.72-23.1,72.45c0,31.27,7.58,55.3,22.75,72.1
			c15.16,16.8,34.18,25.2,57.05,25.2C147.42,308.7,166.91,300.3,183.02,283.5z"/>
	</g>
</g>
<g id="Calque_7" class="st0">
	<g class="st1">
		<path d="M42.66-105.7v518h-119.7v-518H42.66z"/>
	</g>
</g>
<g id="Calque_8" class="st0">
	<g class="st1">
		<path d="M-5.71,95.14c15.16-30.33,35.81-53.66,61.95-70c26.13-16.33,55.3-24.5,87.5-24.5c27.53,0,51.68,5.6,72.45,16.8
			c20.76,11.2,36.75,25.9,47.95,44.1V6.24h119.7v390.6h-119.7v-55.3c-11.67,18.2-27.89,32.9-48.65,44.1
			c-20.77,11.2-44.92,16.8-72.45,16.8c-31.74,0-60.67-8.28-86.8-24.85c-26.14-16.56-46.79-40.13-61.95-70.7
			c-15.17-30.56-22.75-65.91-22.75-106.05C-28.46,160.71-20.88,125.48-5.71,95.14z M239.29,130.84
			c-16.57-17.26-36.75-25.9-60.55-25.9c-23.8,0-43.99,8.52-60.55,25.55c-16.57,17.04-24.85,40.49-24.85,70.35
			c0,29.87,8.28,53.55,24.85,71.05c16.56,17.5,36.75,26.25,60.55,26.25c23.8,0,43.98-8.63,60.55-25.9
			c16.56-17.26,24.85-40.83,24.85-70.7C264.14,171.68,255.85,148.11,239.29,130.84z"/>
	</g>
</g>
<g id="Calque_9" class="st0">
	<g class="st1">
		<path d="M92.05,384.09c-26.6-11.66-47.6-27.65-63-47.95c-15.4-20.3-24.04-43.05-25.9-68.25h118.3c1.4,13.54,7.7,24.5,18.9,32.9
			c11.2,8.4,24.96,12.6,41.3,12.6c14.93,0,26.48-2.91,34.65-8.75c8.16-5.83,12.25-13.41,12.25-22.75c0-11.2-5.84-19.48-17.5-24.85
			c-11.67-5.36-30.57-11.31-56.7-17.85c-28-6.53-51.34-13.41-70-20.65c-18.67-7.23-34.77-18.66-48.3-34.3
			c-13.54-15.63-20.3-36.75-20.3-63.35c0-22.4,6.18-42.81,18.55-61.25c12.36-18.43,30.56-33.01,54.6-43.75
			c24.03-10.73,52.61-16.1,85.75-16.1c49,0,87.61,12.14,115.85,36.4c28.23,24.27,44.45,56.47,48.65,96.6h-110.6
			c-1.87-13.53-7.82-24.26-17.85-32.2c-10.04-7.93-23.22-11.9-39.55-11.9c-14,0-24.74,2.69-32.2,8.05
			c-7.47,5.37-11.2,12.72-11.2,22.05c0,11.2,5.95,19.6,17.85,25.2c11.9,5.6,30.45,11.2,55.65,16.8c28.93,7.47,52.5,14.82,70.7,22.05
			c18.2,7.24,34.18,18.9,47.95,35c13.76,16.1,20.88,37.69,21.35,64.75c0,22.87-6.42,43.29-19.25,61.25
			c-12.84,17.97-31.27,32.09-55.3,42.35c-24.04,10.26-51.92,15.4-83.65,15.4C148.98,401.59,118.65,395.76,92.05,384.09z"/>
	</g>
</g>
<g id="Calque_10" class="st0">
	<g class="st1">
		<path d="M253.75,401.8l-102.2-185.5h-28.7v185.5H3.15V-89.6h200.9c38.73,0,71.75,6.77,99.05,20.3
			c27.3,13.54,47.71,32.09,61.25,55.65c13.53,23.57,20.3,49.82,20.3,78.75c0,32.67-9.22,61.84-27.65,87.5
			c-18.44,25.67-45.62,43.87-81.55,54.6l113.4,194.6H253.75z M122.85,131.6h74.2c21.93,0,38.38-5.36,49.35-16.1
			c10.96-10.73,16.45-25.9,16.45-45.5c0-18.66-5.49-33.36-16.45-44.1c-10.97-10.73-27.42-16.1-49.35-16.1h-74.2V131.6z"/>
	</g>
</g>
<g id="Calque_11">
	<g>
		<path d="M389.9,229.6H119c1.86,24.27,9.68,42.82,23.45,55.65c13.76,12.84,30.68,19.25,50.75,19.25c29.86,0,50.63-12.6,62.3-37.8
			h127.4c-6.54,25.67-18.32,48.77-35.35,69.3c-17.04,20.54-38.39,36.64-64.05,48.3c-25.67,11.67-54.37,17.5-86.1,17.5
			c-38.27,0-72.34-8.16-102.2-24.5c-29.87-16.33-53.2-39.66-70-70C8.4,276.97,0,241.5,0,200.9c0-40.6,8.28-76.06,24.85-106.4
			c16.56-30.33,39.78-53.66,69.65-70C124.36,8.17,158.66,0,197.4,0c37.8,0,71.4,7.94,100.8,23.8c29.4,15.87,52.38,38.5,68.95,67.9
			C383.71,121.1,392,155.4,392,194.6C392,205.8,391.3,217.47,389.9,229.6z M269.5,163.1c0-20.53-7-36.86-21-49
			c-14-12.13-31.5-18.2-52.5-18.2c-20.07,0-36.99,5.84-50.75,17.5c-13.77,11.67-22.29,28.24-25.55,49.7H269.5z"/>
	</g>
</g>
</svg>
