<?xml version="1.0" encoding="utf-8"?>
<!-- Font Poppins, Extracted by @neytaan_art (on Instagram)  -->
<svg version="1.1" xmlns="http://www.w3.org/2000/svg" xmlns:xlink="http://www.w3.org/1999/xlink" x="0px" y="0px"
	 viewBox="0 0 439.6 560.7" style="enable-background:new 0 0 439.6 560.7;" xml:space="preserve">
<style type="text/css">
	.st0{display:none;}
	.st1{display:inline;}
</style>
<g id="Calque_1">
</g>
<g id="Calque_3" class="st0">
	<g class="st1">
		<path d="M439.6,560.7H319.9L119.7,257.6v303.1H0V69.3h119.7l200.2,304.5V69.3h119.7V560.7z"/>
	</g>
</g>
<g id="Calque_4">
	<g>
		<path d="M174.89,110.95c-13.3-12.36-19.95-27.65-19.95-45.85c0-18.66,6.65-34.18,19.95-46.55C188.19,6.19,205.34,0,226.34,0
			c20.53,0,37.45,6.19,50.75,18.55c13.3,12.37,19.95,27.89,19.95,46.55c0,18.2-6.65,33.49-19.95,45.85
			c-13.3,12.37-30.22,18.55-50.75,18.55C205.34,129.5,188.19,123.32,174.89,110.95z M285.84,170.1v390.6h-119.7V170.1H285.84z"/>
	</g>
</g>
</svg>
