<?xml version="1.0" encoding="utf-8"?>
<!-- Font Poppins, Extracted by @neytaan_art (on Instagram)  -->
<svg version="1.1" xmlns="http://www.w3.org/2000/svg" xmlns:xlink="http://www.w3.org/1999/xlink" x="0px" y="0px"
	 viewBox="0 0 439.6 491.4" style="enable-background:new 0 0 439.6 491.4;" xml:space="preserve">
<style type="text/css">
	.st0{display:none;}
	.st1{display:inline;}
</style>
<g id="Calque_1">
</g>
<g id="Calque_2" class="st0">
	<g class="st1">
		<path d="M470.27,306.85l-102.2-185.5h-28.7v185.5h-119.7v-491.4h200.9c38.73,0,71.75,6.77,99.05,20.3
			c27.3,13.54,47.71,32.09,61.25,55.65c13.53,23.57,20.3,49.82,20.3,78.75c0,32.67-9.22,61.84-27.65,87.5
			c-18.44,25.67-45.62,43.87-81.55,54.6l113.4,194.6H470.27z M339.37,36.65h74.2c21.93,0,38.38-5.36,49.35-16.1
			c10.96-10.73,16.45-25.9,16.45-45.5c0-18.66-5.49-33.36-16.45-44.1c-10.97-10.73-27.42-16.1-49.35-16.1h-74.2V36.65z"/>
	</g>
</g>
<g id="Calque_3">
	<g>
		<path d="M439.6,491.4H319.9L119.7,188.3v303.1H0V0h119.7l200.2,304.5V0h119.7V491.4z"/>
	</g>
</g>
</svg>
