<?xml version="1.0" encoding="utf-8"?>
<!-- Font Poppins, Extracted by @neytaan_art (on Instagram)  -->
<svg version="1.1" xmlns="http://www.w3.org/2000/svg" xmlns:xlink="http://www.w3.org/1999/xlink" x="0px" y="0px"
	 viewBox="0 0 388.5 394.8" style="enable-background:new 0 0 388.5 394.8;" xml:space="preserve">
<style type="text/css">
	.st0{display:none;}
	.st1{display:inline;}
</style>
<g id="Calque_1">
</g>
<g id="Calque_3" class="st0">
	<g class="st1">
		<path d="M366.41,408.8h-119.7L46.51,105.7v303.1h-119.7V-82.6h119.7l200.2,304.5V-82.6h119.7V408.8z"/>
	</g>
</g>
<g id="Calque_4" class="st0">
	<g class="st1">
		<path d="M101.7-40.95C88.4-53.31,81.75-68.6,81.75-86.8c0-18.66,6.65-34.18,19.95-46.55c13.3-12.36,30.45-18.55,51.45-18.55
			c20.53,0,37.45,6.19,50.75,18.55c13.3,12.37,19.95,27.89,19.95,46.55c0,18.2-6.65,33.49-19.95,45.85
			c-13.3,12.37-30.22,18.55-50.75,18.55C132.15-22.4,115-28.58,101.7-40.95z M212.65,18.2v390.6H92.95V18.2H212.65z"/>
	</g>
</g>
<g id="Calque_5" class="st0">
	<g class="st1">
		<path d="M-53.93,101.5c16.56-30.33,39.66-53.66,69.3-70C44.99,15.17,78.94,7,117.22,7c49,0,89.95,12.84,122.85,38.5
			c32.9,25.67,54.48,61.84,64.75,108.5h-127.4c-10.74-29.86-31.5-44.8-62.3-44.8c-21.94,0-39.44,8.52-52.5,25.55
			c-13.07,17.04-19.6,41.42-19.6,73.15c0,31.74,6.53,56.12,19.6,73.15c13.06,17.04,30.56,25.55,52.5,25.55
			c30.8,0,51.56-14.93,62.3-44.8h127.4c-10.27,45.74-31.97,81.67-65.1,107.8c-33.14,26.14-73.97,39.2-122.5,39.2
			c-38.27,0-72.22-8.16-101.85-24.5c-29.64-16.33-52.74-39.66-69.3-70c-16.57-30.33-24.85-65.8-24.85-106.4
			S-70.51,131.84-53.93,101.5z"/>
	</g>
</g>
<g id="Calque_6" class="st0">
	<g class="st1">
		<path d="M19.57,384.3c-30.57-16.33-54.6-39.66-72.1-70c-17.5-30.33-26.25-65.8-26.25-106.4c0-40.13,8.86-75.48,26.6-106.05
			c17.73-30.56,42-54.01,72.8-70.35C51.41,15.17,85.94,7,124.22,7c38.26,0,72.8,8.17,103.6,24.5c30.8,16.34,55.06,39.79,72.8,70.35
			c17.73,30.57,26.6,65.92,26.6,106.05c0,40.14-8.99,75.49-26.95,106.05c-17.97,30.57-42.47,54.02-73.5,70.35
			c-31.04,16.34-65.69,24.5-103.95,24.5C84.54,408.8,50.12,400.64,19.57,384.3z M181.27,280c16.1-16.8,24.15-40.83,24.15-72.1
			c0-31.26-7.82-55.3-23.45-72.1c-15.64-16.8-34.89-25.2-57.75-25.2c-23.34,0-42.7,8.29-58.1,24.85
			c-15.4,16.57-23.1,40.72-23.1,72.45c0,31.27,7.58,55.3,22.75,72.1c15.16,16.8,34.18,25.2,57.05,25.2
			C145.67,305.2,165.16,296.8,181.27,280z"/>
	</g>
</g>
<g id="Calque_7" class="st0">
	<g class="st1">
		<path d="M40.92-109.2v518h-119.7v-518H40.92z"/>
	</g>
</g>
<g id="Calque_8" class="st0">
	<g class="st1">
		<path d="M-7.46,91.64c15.16-30.33,35.81-53.66,61.95-70c26.13-16.33,55.3-24.5,87.5-24.5c27.53,0,51.68,5.6,72.45,16.8
			c20.76,11.2,36.75,25.9,47.95,44.1V2.74h119.7v390.6h-119.7v-55.3c-11.67,18.2-27.89,32.9-48.65,44.1
			c-20.77,11.2-44.92,16.8-72.45,16.8c-31.74,0-60.67-8.28-86.8-24.85c-26.14-16.56-46.79-40.13-61.95-70.7
			c-15.17-30.56-22.75-65.91-22.75-106.05C-30.21,157.21-22.63,121.98-7.46,91.64z M237.54,127.34
			c-16.57-17.26-36.75-25.9-60.55-25.9c-23.8,0-43.99,8.52-60.55,25.55c-16.57,17.04-24.85,40.49-24.85,70.35
			c0,29.87,8.28,53.55,24.85,71.05c16.56,17.5,36.75,26.25,60.55,26.25c23.8,0,43.98-8.63,60.55-25.9
			c16.56-17.26,24.85-40.83,24.85-70.7C262.39,168.18,254.1,144.61,237.54,127.34z"/>
	</g>
</g>
<g id="Calque_9" class="st0">
	<g class="st1">
		<path d="M90.3,380.59c-26.6-11.66-47.6-27.65-63-47.95c-15.4-20.3-24.04-43.05-25.9-68.25h118.3c1.4,13.54,7.7,24.5,18.9,32.9
			c11.2,8.4,24.96,12.6,41.3,12.6c14.93,0,26.48-2.91,34.65-8.75c8.16-5.83,12.25-13.41,12.25-22.75c0-11.2-5.84-19.48-17.5-24.85
			c-11.67-5.36-30.57-11.31-56.7-17.85c-28-6.53-51.34-13.41-70-20.65c-18.67-7.23-34.77-18.66-48.3-34.3
			C20.76,165.11,14,143.99,14,117.38c0-22.4,6.18-42.81,18.55-61.25c12.36-18.43,30.56-33.01,54.6-43.75
			c24.03-10.73,52.61-16.1,85.75-16.1c49,0,87.61,12.14,115.85,36.4c28.23,24.27,44.45,56.47,48.65,96.6H226.8
			c-1.87-13.53-7.82-24.26-17.85-32.2c-10.04-7.93-23.22-11.9-39.55-11.9c-14,0-24.74,2.69-32.2,8.05
			c-7.47,5.37-11.2,12.72-11.2,22.05c0,11.2,5.95,19.6,17.85,25.2c11.9,5.6,30.45,11.2,55.65,16.8c28.93,7.47,52.5,14.82,70.7,22.05
			c18.2,7.24,34.18,18.9,47.95,35c13.76,16.1,20.88,37.69,21.35,64.75c0,22.87-6.42,43.29-19.25,61.25
			c-12.84,17.97-31.27,32.09-55.3,42.35c-24.04,10.26-51.92,15.4-83.65,15.4C147.23,398.09,116.9,392.26,90.3,380.59z"/>
	</g>
</g>
<g id="Calque_10" class="st0">
	<g class="st1">
		<path d="M252,398.3L149.8,212.8h-28.7v185.5H1.4V-93.1h200.9c38.73,0,71.75,6.77,99.05,20.3c27.3,13.54,47.71,32.09,61.25,55.65
			c13.53,23.57,20.3,49.82,20.3,78.75c0,32.67-9.22,61.84-27.65,87.5c-18.44,25.67-45.62,43.87-81.55,54.6l113.4,194.6H252z
			 M121.1,128.1h74.2c21.93,0,38.38-5.36,49.35-16.1c10.96-10.73,16.45-25.9,16.45-45.5c0-18.66-5.49-33.36-16.45-44.1
			C233.68,11.67,217.23,6.3,195.3,6.3h-74.2V128.1z"/>
	</g>
</g>
<g id="Calque_11" class="st0">
	<g class="st1">
		<path d="M388.15,226.1h-270.9c1.86,24.27,9.68,42.82,23.45,55.65c13.76,12.84,30.68,19.25,50.75,19.25
			c29.86,0,50.63-12.6,62.3-37.8h127.4c-6.54,25.67-18.32,48.77-35.35,69.3c-17.04,20.54-38.39,36.64-64.05,48.3
			c-25.67,11.67-54.37,17.5-86.1,17.5c-38.27,0-72.34-8.16-102.2-24.5c-29.87-16.33-53.2-39.66-70-70
			C6.65,273.47-1.75,238-1.75,197.4c0-40.6,8.28-76.06,24.85-106.4c16.56-30.33,39.78-53.66,69.65-70
			c29.86-16.33,64.16-24.5,102.9-24.5c37.8,0,71.4,7.94,100.8,23.8c29.4,15.87,52.38,38.5,68.95,67.9
			c16.56,29.4,24.85,63.7,24.85,102.9C390.25,202.3,389.55,213.97,388.15,226.1z M267.75,159.6c0-20.53-7-36.86-21-49
			c-14-12.13-31.5-18.2-52.5-18.2c-20.07,0-36.99,5.84-50.75,17.5c-13.77,11.67-22.29,28.24-25.55,49.7H267.75z"/>
	</g>
</g>
<g id="Calque_12">
	<g>
		<path d="M347.55,44.45c27.3,29.64,40.95,70.35,40.95,122.15v228.2h-119V182.7c0-26.13-6.77-46.43-20.3-60.9
			c-13.54-14.46-31.74-21.7-54.6-21.7c-22.87,0-41.07,7.24-54.6,21.7c-13.54,14.47-20.3,34.77-20.3,60.9v212.1H0V4.2h119.7V56
			c12.13-17.26,28.46-30.91,49-40.95C189.23,5.02,212.33,0,238,0C283.73,0,320.25,14.82,347.55,44.45z"/>
	</g>
</g>
</svg>
