<?xml version="1.0" encoding="utf-8"?>
<!-- Font Poppins, Extracted by @neytaan_art (on Instagram)  -->
<svg version="1.1" xmlns="http://www.w3.org/2000/svg" xmlns:xlink="http://www.w3.org/1999/xlink" x="0px" y="0px"
	 viewBox="0 0 406 401.8" style="enable-background:new 0 0 406 401.8;" xml:space="preserve">
<style type="text/css">
	.st0{display:none;}
	.st1{display:inline;}
</style>
<g id="Calque_1">
</g>
<g id="Calque_3" class="st0">
	<g class="st1">
		<path d="M445.2,401.8H325.5L125.3,98.7v303.1H5.6V-89.6h119.7l200.2,304.5V-89.6h119.7V401.8z"/>
	</g>
</g>
<g id="Calque_4" class="st0">
	<g class="st1">
		<path d="M180.49-47.95c-13.3-12.36-19.95-27.65-19.95-45.85c0-18.66,6.65-34.18,19.95-46.55c13.3-12.36,30.45-18.55,51.45-18.55
			c20.53,0,37.45,6.19,50.75,18.55c13.3,12.37,19.95,27.89,19.95,46.55c0,18.2-6.65,33.49-19.95,45.85
			c-13.3,12.37-30.22,18.55-50.75,18.55C210.94-29.4,193.79-35.58,180.49-47.95z M291.44,11.2v390.6h-119.7V11.2H291.44z"/>
	</g>
</g>
<g id="Calque_5" class="st0">
	<g class="st1">
		<path d="M24.85,94.5c16.56-30.33,39.66-53.66,69.3-70C123.78,8.17,157.73,0,196,0c49,0,89.95,12.84,122.85,38.5
			c32.9,25.67,54.48,61.84,64.75,108.5H256.2c-10.74-29.86-31.5-44.8-62.3-44.8c-21.94,0-39.44,8.52-52.5,25.55
			c-13.07,17.04-19.6,41.42-19.6,73.15c0,31.74,6.53,56.12,19.6,73.15c13.06,17.04,30.56,25.55,52.5,25.55
			c30.8,0,51.56-14.93,62.3-44.8h127.4c-10.27,45.74-31.97,81.67-65.1,107.8c-33.14,26.14-73.97,39.2-122.5,39.2
			c-38.27,0-72.22-8.16-101.85-24.5c-29.64-16.33-52.74-39.66-69.3-70C8.28,276.97,0,241.5,0,200.9S8.28,124.84,24.85,94.5z"/>
	</g>
</g>
<g id="Calque_6">
	<g>
		<path d="M98.35,377.3c-30.57-16.33-54.6-39.66-72.1-70C8.75,276.97,0,241.5,0,200.9c0-40.13,8.86-75.48,26.6-106.05
			c17.73-30.56,42-54.01,72.8-70.35C130.2,8.17,164.73,0,203,0c38.26,0,72.8,8.17,103.6,24.5c30.8,16.34,55.06,39.79,72.8,70.35
			c17.73,30.57,26.6,65.92,26.6,106.05c0,40.14-8.99,75.49-26.95,106.05c-17.97,30.57-42.47,54.02-73.5,70.35
			c-31.04,16.34-65.69,24.5-103.95,24.5C163.33,401.8,128.91,393.64,98.35,377.3z M260.05,273c16.1-16.8,24.15-40.83,24.15-72.1
			c0-31.26-7.82-55.3-23.45-72.1c-15.64-16.8-34.89-25.2-57.75-25.2c-23.34,0-42.7,8.29-58.1,24.85
			c-15.4,16.57-23.1,40.72-23.1,72.45c0,31.27,7.58,55.3,22.75,72.1c15.16,16.8,34.18,25.2,57.05,25.2
			C224.46,298.2,243.95,289.8,260.05,273z"/>
	</g>
</g>
</svg>
