<?xml version="1.0" encoding="utf-8"?>
<!-- Font Poppins, Extracted by @neytaan_art (on Instagram)  -->
<svg version="1.1" xmlns="http://www.w3.org/2000/svg" xmlns:xlink="http://www.w3.org/1999/xlink" x="0px" y="0px"
	 viewBox="0 0 385.7 491.4" style="enable-background:new 0 0 385.7 491.4;" xml:space="preserve">
<style type="text/css">
	.st0{display:none;}
	.st1{display:inline;}
</style>
<g id="Calque_1">
</g>
<g id="Calque_3" class="st0">
	<g class="st1">
		<path d="M365.01,501.9h-119.7L45.11,198.8v303.1h-119.7V10.5h119.7L245.31,315V10.5h119.7V501.9z"/>
	</g>
</g>
<g id="Calque_4" class="st0">
	<g class="st1">
		<path d="M100.3,52.15C87,39.79,80.35,24.5,80.35,6.3c0-18.66,6.65-34.18,19.95-46.55c13.3-12.36,30.45-18.55,51.45-18.55
			c20.53,0,37.45,6.19,50.75,18.55c13.3,12.37,19.95,27.89,19.95,46.55c0,18.2-6.65,33.49-19.95,45.85
			c-13.3,12.37-30.22,18.55-50.75,18.55C130.75,70.7,113.6,64.52,100.3,52.15z M211.25,111.3v390.6H91.55V111.3H211.25z"/>
	</g>
</g>
<g id="Calque_5" class="st0">
	<g class="st1">
		<path d="M-55.34,194.6c16.56-30.33,39.66-53.66,69.3-70c29.63-16.33,63.58-24.5,101.85-24.5c49,0,89.95,12.84,122.85,38.5
			c32.9,25.67,54.48,61.84,64.75,108.5h-127.4c-10.74-29.86-31.5-44.8-62.3-44.8c-21.94,0-39.44,8.52-52.5,25.55
			c-13.07,17.04-19.6,41.42-19.6,73.15c0,31.74,6.53,56.12,19.6,73.15c13.06,17.04,30.56,25.55,52.5,25.55
			c30.8,0,51.56-14.93,62.3-44.8h127.4c-10.27,45.74-31.97,81.67-65.1,107.8c-33.14,26.14-73.97,39.2-122.5,39.2
			c-38.27,0-72.22-8.16-101.85-24.5c-29.64-16.33-52.74-39.66-69.3-70c-16.57-30.33-24.85-65.8-24.85-106.4
			S-71.91,224.94-55.34,194.6z"/>
	</g>
</g>
<g id="Calque_6" class="st0">
	<g class="st1">
		<path d="M18.16,477.4c-30.57-16.33-54.6-39.66-72.1-70c-17.5-30.33-26.25-65.8-26.25-106.4c0-40.13,8.86-75.48,26.6-106.05
			c17.73-30.56,42-54.01,72.8-70.35c30.8-16.33,65.33-24.5,103.6-24.5c38.26,0,72.8,8.17,103.6,24.5
			c30.8,16.34,55.06,39.79,72.8,70.35c17.73,30.57,26.6,65.92,26.6,106.05c0,40.14-8.99,75.49-26.95,106.05
			c-17.97,30.57-42.47,54.02-73.5,70.35c-31.04,16.34-65.69,24.5-103.95,24.5C83.14,501.9,48.72,493.74,18.16,477.4z M179.87,373.1
			c16.1-16.8,24.15-40.83,24.15-72.1c0-31.26-7.82-55.3-23.45-72.1c-15.64-16.8-34.89-25.2-57.75-25.2
			c-23.34,0-42.7,8.29-58.1,24.85c-15.4,16.57-23.1,40.72-23.1,72.45c0,31.27,7.58,55.3,22.75,72.1
			c15.16,16.8,34.18,25.2,57.05,25.2C144.27,398.3,163.76,389.9,179.87,373.1z"/>
	</g>
</g>
<g id="Calque_7" class="st0">
	<g class="st1">
		<path d="M39.51-16.1v518h-119.7v-518H39.51z"/>
	</g>
</g>
<g id="Calque_8" class="st0">
	<g class="st1">
		<path d="M-8.86,184.74c15.16-30.33,35.81-53.66,61.95-70c26.13-16.33,55.3-24.5,87.5-24.5c27.53,0,51.68,5.6,72.45,16.8
			c20.76,11.2,36.75,25.9,47.95,44.1v-55.3h119.7v390.6h-119.7v-55.3c-11.67,18.2-27.89,32.9-48.65,44.1
			c-20.77,11.2-44.92,16.8-72.45,16.8c-31.74,0-60.67-8.28-86.8-24.85c-26.14-16.56-46.79-40.13-61.95-70.7
			c-15.17-30.56-22.75-65.91-22.75-106.05C-31.61,250.31-24.03,215.08-8.86,184.74z M236.14,220.44
			c-16.57-17.26-36.75-25.9-60.55-25.9c-23.8,0-43.99,8.52-60.55,25.55c-16.57,17.04-24.85,40.49-24.85,70.35
			c0,29.87,8.28,53.55,24.85,71.05c16.56,17.5,36.75,26.25,60.55,26.25c23.8,0,43.98-8.63,60.55-25.9
			c16.56-17.26,24.85-40.83,24.85-70.7C260.99,261.28,252.7,237.71,236.14,220.44z"/>
	</g>
</g>
<g id="Calque_9" class="st0">
	<g class="st1">
		<path d="M88.9,473.69c-26.6-11.66-47.6-27.65-63-47.95C10.5,405.44,1.86,382.69,0,357.49h118.3c1.4,13.54,7.7,24.5,18.9,32.9
			c11.2,8.4,24.96,12.6,41.3,12.6c14.93,0,26.48-2.91,34.65-8.75c8.16-5.83,12.25-13.41,12.25-22.75c0-11.2-5.84-19.48-17.5-24.85
			c-11.67-5.36-30.57-11.31-56.7-17.85c-28-6.53-51.34-13.41-70-20.65c-18.67-7.23-34.77-18.66-48.3-34.3
			c-13.54-15.63-20.3-36.75-20.3-63.35c0-22.4,6.18-42.81,18.55-61.25c12.36-18.43,30.56-33.01,54.6-43.75
			c24.03-10.73,52.61-16.1,85.75-16.1c49,0,87.61,12.14,115.85,36.4c28.23,24.27,44.45,56.47,48.65,96.6H225.4
			c-1.87-13.53-7.82-24.26-17.85-32.2c-10.04-7.93-23.22-11.9-39.55-11.9c-14,0-24.74,2.69-32.2,8.05
			c-7.47,5.37-11.2,12.72-11.2,22.05c0,11.2,5.95,19.6,17.85,25.2c11.9,5.6,30.45,11.2,55.65,16.8c28.93,7.47,52.5,14.82,70.7,22.05
			c18.2,7.24,34.18,18.9,47.95,35c13.76,16.1,20.88,37.69,21.35,64.75c0,22.87-6.42,43.29-19.25,61.25
			c-12.84,17.97-31.27,32.09-55.3,42.35c-24.04,10.26-51.92,15.4-83.65,15.4C145.83,491.19,115.5,485.36,88.9,473.69z"/>
	</g>
</g>
<g id="Calque_10">
	<g>
		<path d="M250.6,491.4L148.4,305.9h-28.7v185.5H0V0h200.9c38.73,0,71.75,6.77,99.05,20.3c27.3,13.54,47.71,32.09,61.25,55.65
			c13.53,23.57,20.3,49.82,20.3,78.75c0,32.67-9.22,61.84-27.65,87.5c-18.44,25.67-45.62,43.87-81.55,54.6l113.4,194.6H250.6z
			 M119.7,221.2h74.2c21.93,0,38.38-5.36,49.35-16.1c10.96-10.73,16.45-25.9,16.45-45.5c0-18.66-5.49-33.36-16.45-44.1
			c-10.97-10.73-27.42-16.1-49.35-16.1h-74.2V221.2z"/>
	</g>
</g>
</svg>
