<?xml version="1.0" encoding="utf-8"?>
<!-- Font Poppins, Extracted by @neytaan_art (on Instagram)  -->
<svg version="1.1" xmlns="http://www.w3.org/2000/svg" xmlns:xlink="http://www.w3.org/1999/xlink" x="0px" y="0px"
	 viewBox="0 0 246.4 485.8" style="enable-background:new 0 0 246.4 485.8;" xml:space="preserve">
<style type="text/css">
	.st0{display:none;}
	.st1{display:inline;}
	.st2{fill:#FFFFFF;}
	.st3{display:inline;fill:#563E3E;}
	.st4{font-family:'Poppins-Bold';}
	.st5{font-size:700px;}
</style>
<g id="Calque_1" class="st0">
	<g id="Calque_1_00000103259080370423497940000002913945482051079071_" class="st1">
	</g>
	<g id="Calque_2_00000091726778061685906420000001616357315459212699_">
		<g class="st1">
			<path d="M188,287.1L85.8,101.6H57.1v185.5H-62.6v-491.4h200.9c38.7,0,71.8,6.8,99,20.3c27.3,13.5,47.7,32.1,61.2,55.6
				c13.5,23.6,20.3,49.8,20.3,78.8c0,32.7-9.2,61.8-27.7,87.5c-18.4,25.7-45.6,43.9-81.5,54.6l113.4,194.6L188,287.1L188,287.1z
				 M57.1,16.9h74.2c21.9,0,38.4-5.4,49.4-16.1c11-10.7,16.5-25.9,16.5-45.5c0-18.7-5.5-33.4-16.5-44.1
				c-11-10.7-27.4-16.1-49.4-16.1H57.1V16.9z"/>
		</g>
	</g>
	<g id="Calque_3" class="st1">
		<g>
			<path d="M157.3,471.6H37.6l-200.2-303.1v303.1h-119.7V-19.8h119.7L37.6,284.7V-19.8h119.7L157.3,471.6L157.3,471.6z"/>
		</g>
	</g>
</g>
<g id="Calque_2" class="st0">
	<g class="st1">
		<g>
			<path class="st2" d="M-586.4,765.2c0-283.4,0-566.9,0-850.3c567,0,1133.9,0,1700.9,0c0,283.4,0,566.9,0,850.3
				C547.5,765.2-19.4,765.2-586.4,765.2z M80.6,61.8c0,2.6,0,4.7,0,6.8c0,20.2,0,40.3,0,60.5c0,20,0,40,0,60c0,20.2,0,40.3,0,60.5
				c0,20,0.1,40,0,60c-0.2,20.1,0.9,40.3-0.7,60.4c0,59.2,0,118.3,0,177.5c0,1.6-0.3,3.2,0.5,4.8c1.7,1.2,3.7,0.7,5.6,0.7
				c36.1,0,72.3,0,108.4,0c1,0,1.9,0.1,2.9,0c0.9-0.1,1.8-0.3,2.9-0.5c0-2.5,0.1-4.7,0.1-6.9c0-158.6,0-317.3,0-475.9
				c0-1.6,0-3.2,0-4.8c0-0.9-0.3-1.8-0.4-2.7c-5.2-0.7-83.5-0.9-115.3-0.4C83.3,61.5,82.2,61.7,80.6,61.8z M-248.2,62
				c0,2.5-0.1,4.7-0.1,6.9c0,158.8,0,317.6,0,476.4c0,1.4,0,2.9,0,4.3c0,0.9,0.3,1.8,0.5,3c2,0,3.7,0.1,5.4,0.1
				c25.9,0,51.8,0,77.7,0c10.4,0,20.8,0,31.2,0c1.6,0,3.2,0.4,5-0.9c0-1.5,0-3.2,0-5c0.1-119.3,0.2-238.6,0.2-357.9
				c0-40,0-80,0-119.9c0-1.4,0-2.9,0-4.3c0-0.9-0.2-1.8-0.3-3c-1.5-0.1-2.8-0.2-4-0.2C-174.6,61-243.4,61.3-248.2,62z M406.4,160.8
				c2,0,3.7,0,5.5,0c21.4,0,42.9,0,64.3,0c8.3,0,16.6,0.7,24.7,2.7c21.8,5.5,35.3,19.2,40.2,41.1c2.4,10.7,2.3,21.6,0.2,32.4
				c-4.3,22.2-17.1,36.6-39.2,42.6c-6.8,1.8-13.8,2.8-20.8,2.9c-6.2,0.1-12.5,0.1-18.7,0.1c-17.1,0-34.2,0-51.3,0
				c-1.7,0-3.5-0.5-5.4,0.9c0,1.5,0,3.3,0,5c0,18.2,0,36.5,0,54.7c0,6.9,0,13.8,0,20.6c0,1.1,0.3,2.1,0.5,3.5c1.8,0,3.4,0,5,0
				c5.3,0,10.6,0,15.8,0c1.4,0,2.9,0.2,4.3,0.4c2.5,0.3,5,0.9,7.6,1.1c6.4,0.5,12.8,0.8,19.1,1.1c13.8,0.6,27.5,0.1,41.2-1.4
				c17.2-1.9,34.1-5,50.7-10c1.2-0.4,2.6-1,3.7-0.8c2.4,0.5,4.4-0.4,6.5-1.1c7.9-2.5,15.7-5.6,23.2-9.2
				c37.4-17.9,62.1-46.8,74.6-86.3c4.7-14.9,6.6-30.2,6.5-45.9c-0.1-17.2-2.5-34.1-7.9-50.5c-10.7-32.2-30.3-57.4-59.2-75.2
				c-10.2-6.3-21-11.5-32.3-15.6c-22-7.9-44.8-11.9-68.1-12.3c-29.3-0.5-58.5-0.2-87.8-0.3c-0.9,0-1.8,0.2-3,0.3
				c-0.1,1.5-0.2,2.7-0.3,4C405.3,103.9,405.6,155.8,406.4,160.8z M76,550.7c0-2.6,0-4.2,0-5.8c0-58.4,0-116.7,0-175.1
				c0-1,0-1.9,0-2.9c0.1-1.5-0.3-2.8-1.2-4c-0.7-1-1.4-2.1-2.1-3.2C21.5,281.9-29.6,204.2-80.7,126.4c-12.8-19.5-25.6-39-38.5-58.5
				c-0.9-1.4-1.6-3-3.4-4.3c-0.8,2.3-0.5,4.2-0.5,6c0,58.4,0,116.7,0,175.1c0,0.8,0,1.6,0,2.4c-0.1,2.2,0.3,4.1,1.7,5.8
				c0.6,0.7,1.1,1.6,1.6,2.4C-81.7,313-43.6,370.7-5.6,428.3c25.9,39.2,51.8,78.4,77.7,117.7C73.1,547.4,73.8,549,76,550.7z
				 M668.4,561c-1.1-2-1.8-3.4-2.6-4.8c-36-61.7-72-123.5-107.9-185.2c-0.6-1.1-1.3-2.2-1.9-3.3c-0.7-1.2-1.8-1.8-3.2-1.3
				c-1.4,0.4-2.8,0.8-4.2,1.2c-20.4,5.9-41.1,9.3-62.3,10.6c-17.3,1-34.5,0.7-51.7-1.2c-0.6-0.1-1.2,0-1.6,0.1
				c-0.1,0.4-0.2,0.6-0.2,0.7c0,0.2,0,0.3,0.1,0.5c0.4,0.9,0.8,1.7,1.3,2.6c33,59.9,66.1,119.8,99.2,179.7c0.1,0.1,0.2,0.2,0.3,0.3
				c0.1,0.1,0.3,0.2,0.8,0.5c43.5,0,87.5,0,131.4,0C666.5,561.4,667.1,561.2,668.4,561z"/>
			<path d="M80.6,61.8c1.7-0.1,2.7-0.2,3.8-0.3c31.8-0.5,110.2-0.3,115.3,0.4c0.1,0.8,0.4,1.7,0.4,2.7c0.1,1.6,0,3.2,0,4.8
				c0,158.6,0,317.3,0,475.9c0,2.2,0,4.4-0.1,6.9c-1.2,0.2-2,0.5-2.9,0.5c-1,0.1-1.9,0-2.9,0c-36.1,0-72.3,0-108.4,0
				c-1.9,0-3.8,0.5-5.6-0.7c-0.8-1.6-0.5-3.2-0.5-4.8c0-59.2,0-118.3,0-177.5c1.6-20.1,0.5-40.2,0.7-60.4c0.2-20,0-40,0-60
				c0-20.2,0-40.3,0-60.5c0-20,0-40,0-60c0-20.2,0-40.3,0-60.5C80.6,66.5,80.6,64.4,80.6,61.8z"/>
			<path d="M-248.2,62c4.8-0.7,73.6-1,115.6-0.5c1.2,0,2.5,0.1,4,0.2c0.1,1.2,0.3,2.1,0.3,3c0,1.4,0,2.9,0,4.3c0,40,0,80,0,119.9
				c-0.1,119.3-0.2,238.6-0.2,357.9c0,1.7,0,3.5,0,5c-1.8,1.4-3.4,0.9-5,0.9c-10.4,0-20.8,0-31.2,0c-25.9,0-51.8,0-77.7,0
				c-1.7,0-3.5-0.1-5.4-0.1c-0.2-1.2-0.4-2.1-0.5-3c-0.1-1.4,0-2.9,0-4.3c0-158.8,0-317.6,0-476.4C-248.3,66.8-248.2,64.5-248.2,62z
				"/>
			<path d="M406.4,160.8c-0.8-5-1.1-56.9-0.6-95c0-1.2,0.2-2.5,0.3-4c1.2-0.1,2.1-0.3,3-0.3c29.3,0,58.5-0.3,87.8,0.3
				c23.3,0.4,46.1,4.4,68.1,12.3c11.3,4.1,22.1,9.3,32.3,15.6c28.9,17.8,48.6,43,59.2,75.2c5.4,16.4,7.9,33.2,7.9,50.5
				c0,15.6-1.8,31-6.5,45.9c-12.5,39.4-37.2,68.3-74.6,86.3c-7.5,3.6-15.2,6.7-23.2,9.2c-2.1,0.7-4.1,1.6-6.5,1.1
				c-1.1-0.3-2.5,0.4-3.7,0.8c-16.6,5-33.5,8.1-50.7,10c-13.7,1.5-27.4,2-41.2,1.4c-6.4-0.3-12.8-0.6-19.1-1.1
				c-2.5-0.2-5-0.8-7.6-1.1c-1.4-0.2-2.8-0.4-4.3-0.4c-5.3,0-10.6,0-15.8,0c-1.6,0-3.2,0-5,0c-0.2-1.4-0.5-2.4-0.5-3.5
				c0-6.9,0-13.8,0-20.6c0-18.2,0-36.5,0-54.7c0-1.7,0-3.5,0-5c1.9-1.5,3.7-0.9,5.4-0.9c17.1,0,34.2,0,51.3,0c6.2,0,12.5,0,18.7-0.1
				c7.1-0.1,14-1.1,20.8-2.9c22-5.9,34.9-20.4,39.2-42.6c2.1-10.8,2.2-21.7-0.2-32.4c-4.9-21.9-18.4-35.6-40.2-41.1
				c-8.1-2-16.4-2.7-24.7-2.7c-21.4,0-42.9,0-64.3,0C410.1,160.8,408.4,160.8,406.4,160.8z"/>
			<path d="M76,550.7c-2.1-1.7-2.9-3.3-3.8-4.7c-25.9-39.2-51.8-78.4-77.7-117.7C-43.6,370.7-81.7,313-119.8,255.4
				c-0.5-0.8-1-1.7-1.6-2.4c-1.4-1.7-1.9-3.7-1.7-5.8c0.1-0.8,0-1.6,0-2.4c0-58.4,0-116.7,0-175.1c0-1.8-0.3-3.7,0.5-6
				c1.8,1.3,2.5,2.9,3.4,4.3c12.8,19.5,25.7,39,38.5,58.5c51.1,77.8,102.2,155.5,153.4,233.3c0.7,1.1,1.4,2.2,2.1,3.2
				c0.9,1.2,1.3,2.5,1.2,4c0,1,0,1.9,0,2.9c0,58.4,0,116.7,0,175.1C76,546.5,76,548.1,76,550.7z"/>
			<path d="M668.4,561c-1.3,0.2-1.9,0.4-2.5,0.4c-44,0-87.9,0-131.4,0c-0.6-0.4-0.7-0.4-0.8-0.5c-0.1-0.1-0.3-0.2-0.3-0.3
				c-33.1-59.9-66.1-119.8-99.2-179.7c-0.5-0.8-0.9-1.7-1.3-2.6c-0.1-0.1-0.1-0.3-0.1-0.5c0-0.2,0.1-0.3,0.2-0.7
				c0.5,0,1.1-0.1,1.6-0.1c17.2,1.9,34.5,2.2,51.7,1.2c21.1-1.3,41.9-4.7,62.3-10.6c1.4-0.4,2.8-0.7,4.2-1.2
				c1.5-0.5,2.5,0.1,3.2,1.3c0.7,1.1,1.3,2.2,1.9,3.3c36,61.7,72,123.5,107.9,185.2C666.6,557.6,667.3,559,668.4,561z"/>
		</g>
	</g>
</g>
<g id="Calque_3_00000140714995643558881240000008055219496379238068_" class="st0">
	<text transform="matrix(1 0 0 1 -247.1381 518.1473)" class="st3 st4 st5">NR</text>
</g>
<g id="Calque_4" class="st0">
	<rect x="-188.4" y="26.7" class="st1" width="119.7" height="491.4"/>
</g>
<g id="Calque_6" class="st0">
	<polygon class="st1" points="-69.6,26.7 -69.6,215 130.6,518.1 130.6,331.2 	"/>
</g>
<g id="Calque_5" class="st0">
	<rect x="130.4" y="26.8" class="st1" width="119.7" height="491.4"/>
</g>
<g id="Calque_8" class="st0">
	<path class="st1" d="M281,247.9v84.7h105.3c0,0,155.8-3.3,155.7-155C542,30.9,377.7,26.7,377.7,26.7H281v99.4l79.6-0.3
		c0,0,58.4-0.6,60.5,53.9c2.1,55.3-28,64.8-60.5,68.2L281,247.9z"/>
</g>
<g id="Calque_9" class="st0">
	<polygon class="st1" points="309.7,332.6 411.9,518.1 547,518.1 433.6,323.5 	"/>
</g>
<g id="Calque_10" class="st0">
	<g class="st1">
		<path d="M60.4,468.3c-26.6-11.7-47.6-27.6-63-48c-15.4-20.3-24-43-25.9-68.2H89.8c1.4,13.5,7.7,24.5,18.9,32.9
			c11.2,8.4,25,12.6,41.3,12.6c14.9,0,26.5-2.9,34.6-8.8c8.2-5.8,12.2-13.4,12.2-22.8c0-11.2-5.8-19.5-17.5-24.8
			c-11.7-5.4-30.6-11.3-56.7-17.8c-28-6.5-51.3-13.4-70-20.7c-18.7-7.2-34.8-18.7-48.3-34.3c-13.5-15.6-20.3-36.8-20.3-63.4
			c0-22.4,6.2-42.8,18.5-61.2c12.4-18.4,30.6-33,54.6-43.7C81.3,89.4,109.9,84,143,84c49,0,87.6,12.1,115.8,36.4
			c28.2,24.3,44.5,56.5,48.7,96.6H196.9c-1.9-13.5-7.8-24.3-17.8-32.2c-10-7.9-23.2-11.9-39.5-11.9c-14,0-24.7,2.7-32.2,8
			c-7.5,5.4-11.2,12.7-11.2,22c0,11.2,6,19.6,17.8,25.2c11.9,5.6,30.5,11.2,55.7,16.8c28.9,7.5,52.5,14.8,70.7,22
			c18.2,7.2,34.2,18.9,48,35c13.8,16.1,20.9,37.7,21.3,64.8c0,22.9-6.4,43.3-19.2,61.2c-12.8,18-31.3,32.1-55.3,42.4
			c-24,10.3-51.9,15.4-83.7,15.4C117.4,485.8,87,480,60.4,468.3z"/>
	</g>
</g>
<g id="Calque_11" class="st0">
	<text transform="matrix(1 0 0 1 -14.6973 485.7896)" class="st1 st4 st5">t</text>
</g>
<g id="Calque_12">
	<g>
		<path d="M247.3,384.3v101.5h-60.9c-43.4,0-77.2-10.6-101.5-31.8c-24.3-21.2-36.4-55.9-36.4-104V194.6H0.9V95.2h47.6V0h119.7v95.2
			h78.4v99.4h-78.4v156.8c0,11.7,2.8,20.1,8.4,25.2c5.6,5.1,14.9,7.7,28,7.7H247.3z"/>
	</g>
</g>
</svg>
